<?xml version="1.0" encoding="UTF-8" standalone="no"?>
<!-- Created with Inkscape (http://www.inkscape.org/) -->

<svg
   width="32"
   height="32"
   viewBox="0 0 8.4666666 8.4666666"
   version="1.1"
   id="svg5"
   xml:space="preserve"
   inkscape:version="1.2.2 (b0a8486541, 2022-12-01)"
   sodipodi:docname="hurtbox_icon.svg"
   xmlns:inkscape="http://www.inkscape.org/namespaces/inkscape"
   xmlns:sodipodi="http://sodipodi.sourceforge.net/DTD/sodipodi-0.dtd"
   xmlns="http://www.w3.org/2000/svg"
   xmlns:svg="http://www.w3.org/2000/svg"><sodipodi:namedview
     id="namedview7"
     pagecolor="#ffffff"
     bordercolor="#000000"
     borderopacity="0.25"
     inkscape:showpageshadow="2"
     inkscape:pageopacity="0.0"
     inkscape:pagecheckerboard="0"
     inkscape:deskcolor="#d1d1d1"
     inkscape:document-units="mm"
     showgrid="false"
     inkscape:zoom="11.459933"
     inkscape:cx="17.45211"
     inkscape:cy="16.143201"
     inkscape:window-width="1920"
     inkscape:window-height="992"
     inkscape:window-x="0"
     inkscape:window-y="0"
     inkscape:window-maximized="1"
     inkscape:current-layer="layer1" /><defs
     id="defs2" /><g
     inkscape:label="Layer 1"
     inkscape:groupmode="layer"
     id="layer1"><path
       fill="#a5b8f0"
       d="M 4.2333513,-1.6666667e-7 C 3.0776129,0.51004657 1.904796,0.98182885 0.74238905,1.4769347 0.49495205,1.5808794 0.24750451,1.684799 -1.6666668e-8,1.7885828 -0.08777639,3.9540018 0.89405796,6.0877996 2.4601375,7.5591507 3.0363124,8.0701674 3.770779,8.6206127 4.5878536,8.4251646 5.4630293,8.1654518 6.1368733,7.4878589 6.7102961,6.8068838 7.8554501,5.4075126 8.5426475,3.6079141 8.4666667,1.7885825 7.0729723,1.198302 5.6715476,0.62530478 4.2829939,0.02349358 4.2664464,0.01566233 4.2498988,0.00783108 4.2333513,-1.6666667e-7 Z m 0,1.15357526666667 c 0,2.0849458 0,4.1698915 0,6.2548373 C 3.4630106,7.2160166 2.9303259,6.560312 2.4478484,5.9722196 1.6994802,4.9677833 1.1399379,3.653798 1.1661123,2.4370781 2.1885253,2.0128052 3.2109383,1.5885324 4.2333513,1.1642596 Z"
       id="path369"
       style="fill:#a5b8f0;fill-opacity:1;stroke:none;stroke-width:1.058;stroke-dasharray:none" /></g></svg>
